<svg width="83" height="24" viewBox="0 0 83 24" fill="none" xmlns="http://www.w3.org/2000/svg">
<path d="M41.9101 8.92277H40.8272C40.6068 8.92277 40.462 8.80314 40.3991 8.57018C40.3361 8.08538 40.292 7.68872 40.2669 7.38021H35.9288V11.1075H40.4935V13.0468H35.9288V16.8433H40.2669C40.292 16.5348 40.3361 16.1382 40.3991 15.6534C40.462 15.4204 40.6068 15.3008 40.8272 15.3008H41.9101V18.8581H32V17.7626C32 17.4541 32.1574 17.2589 32.4659 17.1833L32.5792 17.1644C32.617 17.1644 32.6548 17.1644 32.6989 17.1456C32.7429 17.133 32.7933 17.1204 32.8563 17.1078L33.4166 17.0133V7.2354L32.8563 7.14096C32.7933 7.12836 32.7429 7.11577 32.6989 7.10318C32.6548 7.09059 32.617 7.08429 32.5792 7.08429L32.4659 7.0654C32.1574 6.98985 32 6.80097 32 6.48616V5.39062H41.9101V8.92907V8.92277Z" fill="#28B4FF"/>
<path d="M47.7672 17.7497V18.8452H42.6484V17.7497C42.6484 17.4412 42.8058 17.246 43.1144 17.1705L43.2277 17.1516L43.5047 17.0949L44.0651 17.0005V6.85107L43.5047 6.75663C43.4418 6.74403 43.3914 6.73144 43.3473 6.71885C43.3032 6.70626 43.2655 6.69996 43.2277 6.69996L43.1144 6.68107C42.8058 6.60552 42.6484 6.41664 42.6484 6.10183V5H46.3569V16.9942L46.9172 17.0886L47.1943 17.1453L47.3076 17.1642C47.6161 17.2397 47.7735 17.4286 47.7735 17.7434L47.7672 17.7497Z" fill="#28B4FF"/>
<path d="M59.217 10.4041C59.217 10.7126 59.0596 10.9078 58.7511 10.9834C58.7007 10.9834 58.6251 10.996 58.5307 11.0211C58.43 11.0463 58.2159 11.0904 57.8822 11.1534L53.4686 21.4917C53.393 21.668 53.2986 21.7876 53.1916 21.8631C53.1034 21.9387 52.946 21.9765 52.7068 21.9765H50.9942L52.7823 18.161L49.7098 11.1597C49.3761 11.0967 49.1557 11.0526 49.0613 11.0274C48.9605 11.0023 48.885 10.9897 48.8409 10.9897C48.5324 10.9141 48.375 10.7252 48.375 10.4104V9.30859H53.0279V10.4104C53.0279 10.7189 52.8705 10.9141 52.5619 10.9897L52.1149 11.0652L53.626 14.6981C53.6764 14.8114 53.7141 14.9122 53.7393 14.994C53.7645 15.0822 53.7834 15.1514 53.796 15.2018C53.8212 15.2899 53.8652 15.4599 53.9282 15.7244L54.0982 15.2018C54.1738 14.9814 54.2367 14.8114 54.2871 14.6981L55.6848 11.103L55.0489 10.9897C54.7404 10.9141 54.583 10.7252 54.583 10.4104V9.30859H59.2359V10.4104L59.217 10.4041Z" fill="#28B4FF"/>
<path d="M66.7345 15.8137C66.7345 16.2607 66.6464 16.6888 66.4764 17.0981C66.3001 17.4822 66.0609 17.8159 65.7523 18.1055C65.4186 18.4014 65.022 18.6218 64.5624 18.754C64.1153 18.9177 63.5676 18.9932 62.9254 18.9932C62.365 18.9932 61.8172 18.9429 61.2758 18.8421C60.7343 18.7414 60.2747 18.6218 59.8906 18.4707V15.7696H60.9736C61.1939 15.7696 61.3387 15.8892 61.4017 16.1222C61.4269 16.2607 61.471 16.6259 61.5339 17.224C61.8676 17.3248 62.3713 17.3751 63.045 17.3751C63.3031 17.3751 63.5424 17.3436 63.7502 17.2807C63.9642 17.2051 64.1216 17.117 64.235 17.0225C64.3861 16.8966 64.4742 16.7833 64.512 16.67C64.5624 16.5314 64.5876 16.3866 64.5876 16.2229C64.5876 16.0026 64.5246 15.82 64.3987 15.6815C64.2853 15.5555 64.109 15.4359 63.8572 15.31C63.6242 15.1967 63.3724 15.1022 63.1143 15.033L62.2391 14.7559C62.0376 14.693 61.7543 14.5733 61.3828 14.4033C61.0869 14.2648 60.8287 14.1011 60.621 13.8996C60.4006 13.7045 60.2243 13.4526 60.0984 13.1567C59.9599 12.8482 59.8906 12.4893 59.8906 12.0738C59.8906 11.6582 59.9662 11.3056 60.111 10.9593C60.2621 10.6131 60.4888 10.2982 60.7973 10.0275C61.1058 9.75677 61.4836 9.5427 61.9306 9.3916C62.4154 9.2279 62.9317 9.15234 63.4794 9.15234C63.9516 9.15234 64.3672 9.18382 64.7261 9.25308C65.085 9.32234 65.6012 9.45456 66.2749 9.65604H66.256V12.3571H65.192C64.9653 12.3571 64.8268 12.2375 64.7638 12.0045C64.7261 11.8408 64.682 11.4945 64.6316 10.9593C64.3483 10.8712 63.9705 10.8271 63.5109 10.8271C63.0513 10.8271 62.7113 10.9216 62.4469 11.1042C62.1824 11.2867 62.0565 11.5449 62.0565 11.866C62.0565 12.0549 62.1258 12.2249 62.2643 12.3886C62.365 12.5019 62.535 12.6152 62.7869 12.7412C63.0702 12.8797 63.322 12.9741 63.5298 13.0371C63.6305 13.0623 63.9139 13.1504 64.3861 13.2952C64.619 13.3708 64.915 13.4904 65.2612 13.6478C65.5572 13.7863 65.809 13.9437 66.0042 14.1326C66.2246 14.3215 66.4008 14.5482 66.5268 14.8189C66.6653 15.1148 66.7345 15.4485 66.7345 15.8074V15.8137Z" fill="#28B4FF"/>
<path d="M72.4391 17.748V18.8435H67.3203V17.748C67.3203 17.4395 67.4777 17.2443 67.7862 17.1687L67.8996 17.1498L68.1766 17.0932L68.7369 16.9987V11.1307L68.1766 11.0363C68.1136 11.0237 68.0633 11.0111 68.0192 10.9985C67.9751 10.9859 67.9373 10.9796 67.8996 10.9796L67.7862 10.9607C67.4777 10.8852 67.3203 10.6963 67.3203 10.3815V9.27964H71.0287V16.9924L71.5891 17.0869C71.6521 17.0995 71.7024 17.1121 71.7465 17.1247C71.7906 17.1372 71.8284 17.1435 71.8661 17.1435L71.9795 17.1624C72.288 17.238 72.4454 17.4269 72.4454 17.7417L72.4391 17.748ZM71.2491 7.0571C71.1736 7.23339 71.0665 7.3845 70.9343 7.52301C70.7832 7.67412 70.6321 7.77486 70.4684 7.83782C70.2795 7.91337 70.0906 7.95115 69.8891 7.95115C69.6877 7.95115 69.4988 7.91337 69.3099 7.83782C69.1588 7.77486 69.014 7.66782 68.8629 7.52301C68.7244 7.3845 68.6236 7.23339 68.5481 7.0571C68.4725 6.8808 68.4347 6.69822 68.4347 6.49674C68.4347 6.29526 68.4725 6.10638 68.5481 5.91749C68.611 5.75379 68.7181 5.60268 68.8629 5.45158C69.0014 5.31306 69.1462 5.21862 69.3099 5.15566C69.5303 5.06751 69.7254 5.02344 69.8891 5.02344C70.0528 5.02344 70.2417 5.06751 70.4684 5.15566C70.6573 5.23121 70.8084 5.33195 70.9343 5.45158C71.0854 5.60268 71.1862 5.75379 71.2491 5.91749C71.3373 6.13156 71.3813 6.32045 71.3813 6.49674C71.3813 6.67303 71.3373 6.85562 71.2491 7.0571Z" fill="#28B4FF"/>
<path d="M82.106 17.733V18.8285H79.9086C79.6757 18.8285 79.4994 18.797 79.386 18.734C79.2601 18.6837 79.1657 18.5452 79.109 18.3248L78.9012 17.6574C78.6494 17.8904 78.4164 18.0855 78.1961 18.2366C78.0198 18.3626 77.7805 18.4948 77.472 18.6459C77.2517 18.7466 76.9872 18.8285 76.6913 18.8851C76.3828 18.9481 76.068 18.9796 75.7595 18.9796C75.3502 18.9796 74.9787 18.9229 74.6387 18.8096C74.2799 18.6837 73.9902 18.5263 73.7636 18.3248C73.5054 18.0918 73.3103 17.8148 73.1843 17.5063C73.0458 17.1726 72.9766 16.8011 72.9766 16.3856C72.9766 16.0141 73.071 15.6552 73.2536 15.3026C73.4425 14.9438 73.7573 14.6289 74.2043 14.3519C74.6765 14.056 75.2621 13.8167 75.9546 13.6467C76.685 13.4579 77.5979 13.3697 78.6935 13.3697V12.8094C78.6935 12.186 78.555 11.7075 78.2842 11.3738C78.0261 11.0653 77.6357 10.9079 77.1131 10.9079C76.7165 10.9079 76.408 10.952 76.1813 11.0401C75.898 11.1535 75.6776 11.2542 75.5265 11.3361L75.0228 11.6131C74.8843 11.7012 74.7206 11.7453 74.5191 11.7453C74.3554 11.7453 74.2232 11.7075 74.1099 11.632C74.0343 11.5816 73.9462 11.4809 73.8517 11.3361L73.4236 10.612C74.5443 9.59202 75.8602 9.08203 77.3902 9.08203C77.9505 9.08203 78.4542 9.17647 78.9012 9.35906C79.3357 9.54795 79.7009 9.79979 79.9968 10.1209C80.3305 10.505 80.5697 10.8953 80.7019 11.292C80.853 11.739 80.9223 12.2364 80.9223 12.7842V17.0089L81.426 17.1033L81.6338 17.1411C81.9423 17.2167 82.0997 17.4056 82.0997 17.7204L82.106 17.733ZM77.025 14.906C76.5654 15.0067 76.2002 15.12 75.9295 15.2397C75.6587 15.3656 75.4635 15.5104 75.3502 15.6867C75.2369 15.8504 75.1802 16.0393 75.1802 16.2659C75.1802 16.6878 75.2998 16.9774 75.5328 17.1411C75.7784 17.3174 76.0932 17.3993 76.4646 17.3993C76.6976 17.3993 76.918 17.3804 77.1131 17.3426C77.3272 17.3048 77.5161 17.2356 77.6924 17.1348C77.9127 17.0089 78.0827 16.9082 78.1961 16.82C78.3724 16.6815 78.5361 16.5367 78.6998 16.373V14.7738C78.0072 14.7738 77.4468 14.8178 77.025 14.906Z" fill="#28B4FF"/>
<g clip-path="url(#clip0_219_6024)">
<path d="M12.065 24C5.41481 24 0 18.6177 0 12C0 5.3823 5.41481 0 12.065 0C12.5599 0 12.9609 0.400963 12.9609 0.892234C12.9609 1.3835 12.5599 1.78447 12.065 1.78447C6.40096 1.78447 1.79169 6.36845 1.79169 12C1.79169 17.6315 6.40096 22.2155 12.065 22.2155C17.7291 22.2155 22.3384 17.6315 22.3384 12C22.3384 11.5087 22.7393 11.1078 23.2342 11.1078C23.7291 11.1078 24.13 11.5087 24.13 12C24.13 18.6141 18.7152 24 12.065 24Z" fill="#28B4FF"/>
<path d="M23.2426 10.024C23.77 10.024 24.1998 9.59773 24.1998 9.07034C24.1998 8.54295 23.77 8.1167 23.2426 8.1167C22.7152 8.1167 22.2853 8.54295 22.2853 9.07034C22.2853 9.59773 22.7152 10.024 23.2426 10.024Z" fill="#28B4FF"/>
</g>
<path d="M18.7614 12.181C18.7614 11.3633 18.2747 10.6257 17.5372 10.2996C17.7028 9.99862 17.7931 9.65244 17.7931 9.29623C17.7931 8.14231 16.8549 7.20412 15.701 7.20412C15.6809 7.20412 15.6608 7.20412 15.6408 7.20412C15.6458 7.14893 15.6508 7.08872 15.6508 7.02852C15.6508 6.18064 14.9584 5.48828 14.1105 5.48828C13.2627 5.48828 12.5703 6.18064 12.5703 7.02852V16.5659C12.5703 17.6647 13.4633 18.5577 14.5621 18.5577C15.6608 18.5577 16.5187 17.6998 16.5539 16.6312C17.4369 16.4706 18.0841 15.703 18.0841 14.7949C18.0841 14.4688 17.9988 14.1578 17.8432 13.8768C18.3951 13.5106 18.7614 12.8784 18.7614 12.166V12.181Z" fill="#28B4FF"/>
<path d="M6.33218 13.9002C6.17666 14.1812 6.09137 14.4923 6.09137 14.8184C6.09137 15.7264 6.74358 16.4941 7.62157 16.6546C7.65669 17.7232 8.53467 18.5812 9.61334 18.5812C10.7121 18.5812 11.6051 17.6881 11.6051 16.5894V11.9486V11.3917V7.05196C11.6051 6.20407 10.9128 5.51172 10.0649 5.51172C9.21699 5.51172 8.52464 6.20407 8.52464 7.05196C8.52464 7.11216 8.52464 7.16735 8.53467 7.22755C8.5146 7.22755 8.49454 7.22755 8.47447 7.22755C7.32054 7.22755 6.38235 8.16574 6.38235 9.31967C6.38235 9.67588 6.47266 10.017 6.63822 10.3231C5.90072 10.6492 5.41406 11.3867 5.41406 12.2045C5.41406 12.9169 5.78031 13.544 6.33218 13.9153V13.9002Z" fill="#002244"/>
<path d="M15.0569 10.3325C15.6665 10.3325 16.1606 9.83834 16.1606 9.22875C16.1606 8.61917 15.6665 8.125 15.0569 8.125C14.4473 8.125 13.9531 8.61917 13.9531 9.22875C13.9531 9.83834 14.4473 10.3325 15.0569 10.3325Z" stroke="white" stroke-width="0.782661" stroke-linecap="round" stroke-linejoin="round"/>
<path d="M15.0569 16.3638C15.6665 16.3638 16.1606 15.8696 16.1606 15.26C16.1606 14.6504 15.6665 14.1562 15.0569 14.1562C14.4473 14.1562 13.9531 14.6504 13.9531 15.26C13.9531 15.8696 14.4473 16.3638 15.0569 16.3638Z" stroke="white" stroke-width="0.782661" stroke-linecap="round" stroke-linejoin="round"/>
<path d="M16.1272 13.352C16.7368 13.352 17.2309 12.8579 17.2309 12.2483C17.2309 11.6387 16.7368 11.1445 16.1272 11.1445C15.5176 11.1445 15.0234 11.6387 15.0234 12.2483C15.0234 12.8579 15.5176 13.352 16.1272 13.352Z" stroke="white" stroke-width="0.782661" stroke-linecap="round" stroke-linejoin="round"/>
<path d="M13.9546 9.22266H12.1484" stroke="white" stroke-width="0.782661" stroke-linecap="round" stroke-linejoin="round"/>
<path d="M15.0397 12.2461H11.9141" stroke="white" stroke-width="0.782661" stroke-linecap="round" stroke-linejoin="round"/>
<path d="M13.9546 15.2695H12.1484" stroke="white" stroke-width="0.782661" stroke-linecap="round" stroke-linejoin="round"/>
<defs>
<clipPath id="clip0_219_6024">
<rect width="24.1951" height="24" fill="white"/>
</clipPath>
</defs>
</svg>
