<svg version="1.2" xmlns="http://www.w3.org/2000/svg" viewBox="0 0 48 48" width="48" height="48">
	<title>Elysia-logo</title>
	<defs>
		<clipPath clipPathUnits="userSpaceOnUse" id="cp1">
			<path d="m0.06 0h143.88v48h-143.88z"/>
		</clipPath>
		<clipPath clipPathUnits="userSpaceOnUse" id="cp2">
			<path d="m0.06 0h48.23v47.84h-48.23z"/>
		</clipPath>
	</defs>
	<style>
		.s0 { fill: #28b4ff } 
		.s1 { fill: #002244 } 
		.s2 { fill: none;stroke: #ffffff;stroke-linecap: round;stroke-linejoin: round;stroke-width: 1 } 
	</style>
	<g id="Clip-Path" clip-path="url(#cp1)">
		<g>
			<g id="Clip-Path" clip-path="url(#cp2)">
				<g>
					<path class="s0" d="m24.1 47.8c-13.2 0-24-10.7-24-23.9 0-13.2 10.8-23.9 24-23.9 1 0 1.8 0.8 1.8 1.8 0 1-0.8 1.8-1.8 1.8-11.3 0-20.5 9.1-20.5 20.3 0 11.2 9.2 20.4 20.5 20.4 11.3 0 20.5-9.2 20.5-20.4 0-1 0.8-1.8 1.8-1.8 1 0 1.8 0.8 1.8 1.8 0 13.2-10.8 23.9-24.1 23.9z"/>
					<path class="s0" d="m46.4 20c1 0 1.9-0.9 1.9-1.9 0-1.1-0.9-1.9-1.9-1.9-1.1 0-1.9 0.8-1.9 1.9 0 1 0.8 1.9 1.9 1.9z"/>
				</g>
			</g>
			<path class="s0" d="m80.1 22.4h-1.7q-0.6 0-0.7-0.5-0.2-1.2-0.2-1.9h-6.9v5.9h7.2v3.1h-7.2v6h6.9q0-0.7 0.2-1.9 0.1-0.6 0.7-0.6h1.7v5.7h-15.8v-1.7q0-0.8 0.8-1h0.2q0 0 0.2 0 0.1-0.1 0.2-0.1l0.9-0.1v-15.6l-0.9-0.1q-0.1 0-0.2-0.1-0.2 0-0.2 0h-0.2q-0.8-0.2-0.8-1v-1.7h15.8v5.6z"/>
			<path class="s0" d="m89.4 36.4v1.8h-8.1v-1.8q0-0.7 0.7-0.9h0.2l0.5-0.1 0.8-0.2v-16.1l-0.8-0.1q-0.2-0.1-0.3-0.1-0.1 0-0.2 0l-0.2-0.1q-0.7-0.1-0.7-0.9v-1.7h5.9v19l0.9 0.2 0.4 0.1h0.2q0.7 0.2 0.7 0.9z"/>
			<path class="s0" d="m107.6 24.8q0 0.7-0.8 0.9-0.1 0-0.3 0-0.3 0.1-1.1 0.2l-7 16.5q-0.2 0.4-0.4 0.6-0.2 0.1-0.8 0.1h-2.7l2.8-6-4.8-11.1q-0.8-0.2-1.1-0.3-0.2 0-0.3 0-0.8-0.2-0.8-0.9v-1.8h7.4v1.8q0 0.7-0.7 0.9l-0.7 0.1 2.4 5.8q0.1 0.2 0.2 0.4 0 0.3 0.1 0.4 0 0.2 0.2 0.8l0.2-0.8q0.2-0.6 0.3-0.8l2.3-5.7-1.1-0.2q-0.7-0.2-0.7-0.9v-1.8h7.4v1.8z"/>
			<path class="s0" d="m119.5 33.4q0 1-0.4 2-0.4 0.9-1.1 1.6-0.8 0.7-1.9 1-1.1 0.4-2.6 0.4-1.4 0-2.7-0.2-1.2-0.3-2.2-0.6v-4.3h1.8q0.5 0 0.6 0.6 0.1 0.3 0.3 1.7 0.7 0.2 2.4 0.2 0.6 0 1.1-0.1 0.5-0.2 0.7-0.4 0.4-0.3 0.5-0.6 0.1-0.3 0.1-0.7 0-0.5-0.3-0.8-0.3-0.3-0.9-0.6-0.5-0.3-1.1-0.5l-1.4-0.4q-0.5-0.2-1.4-0.6-0.7-0.3-1.2-0.8-0.5-0.4-0.8-1.2-0.4-0.7-0.4-1.7c0-0.6 0.2-1.2 0.4-1.7q0.3-0.9 1.1-1.5 0.7-0.7 1.8-1 1.1-0.4 2.4-0.4 1.2 0 2 0.1 0.9 0.2 2.5 0.7v4.3h-1.7q-0.6 0-0.7-0.6-0.1-0.4-0.2-1.6-0.7-0.3-1.8-0.3c-0.7 0-1.3 0.2-1.7 0.5q-0.6 0.4-0.6 1.2 0 0.4 0.3 0.8 0.2 0.3 0.8 0.6 0.7 0.3 1.2 0.5 0.3 0 1.4 0.4 0.5 0.1 1.4 0.5 0.7 0.3 1.1 0.8 0.6 0.4 0.9 1.1 0.3 0.7 0.3 1.6z"/>
			<path class="s0" d="m128.6 36.4v1.8h-8.2v-1.8q0-0.7 0.8-0.9h0.1l0.5-0.1 0.9-0.2v-9.3l-0.9-0.1q-0.2-0.1-0.3-0.1-0.1 0-0.2 0l-0.1-0.1q-0.8-0.1-0.8-0.9v-1.7h5.9v12.2l0.9 0.2q0.2 0 0.3 0 0.1 0.1 0.2 0.1h0.1q0.8 0.2 0.8 0.9zm-1.9-17q-0.2 0.5-0.5 0.8-0.4 0.3-0.8 0.5-0.4 0.2-0.9 0.2-0.5 0-0.9-0.2-0.4-0.2-0.7-0.5-0.3-0.3-0.5-0.8-0.2-0.4-0.2-0.9 0-0.4 0.2-0.9 0.1-0.4 0.5-0.7 0.3-0.3 0.7-0.5 0.5-0.2 0.9-0.2 0.4 0 0.9 0.2 0.5 0.2 0.8 0.5 0.3 0.3 0.5 0.7 0.2 0.5 0.2 0.9 0 0.5-0.2 0.9z"/>
			<path class="s0" d="m143.9 36.4v1.7h-3.5q-0.5 0-0.8-0.1-0.3-0.1-0.4-0.7l-0.4-1q-0.5 0.5-1.1 0.9-0.4 0.3-1.1 0.7-0.6 0.2-1.3 0.3-0.7 0.2-1.4 0.2-1 0-1.8-0.3-0.9-0.3-1.4-0.8-0.6-0.5-0.9-1.3-0.4-0.8-0.4-1.7 0-0.9 0.5-1.8 0.4-0.8 1.5-1.5 1.1-0.7 2.8-1.1 1.7-0.4 4.3-0.4v-0.9q0-1.5-0.6-2.3-0.6-0.7-1.9-0.7-0.9 0-1.5 0.2-0.6 0.2-1 0.4l-0.8 0.5q-0.3 0.2-0.8 0.2-0.4 0-0.7-0.2-0.1-0.1-0.4-0.5l-0.6-1.1q2.6-2.4 6.2-2.4 1.4 0 2.4 0.4 1.1 0.4 1.8 1.2 0.8 0.9 1.1 1.9 0.4 1 0.4 2.3v6.8l0.8 0.1 0.3 0.1q0.7 0.1 0.7 0.9zm-8-4.5q-1.1 0.2-1.8 0.5-0.6 0.3-0.9 0.7-0.3 0.4-0.3 1 0 1 0.6 1.3 0.6 0.5 1.5 0.5 0.5 0 1-0.1 0.5-0.1 0.9-0.4 0.5-0.3 0.8-0.5 0.4-0.3 0.8-0.7v-2.5q-1.6 0-2.6 0.2z"/>
			<path class="s0" d="m37.4 24.3c0-1.6-0.9-3.1-2.4-3.8 0.3-0.6 0.5-1.3 0.5-2 0-2.3-1.9-4.1-4.2-4.1q0 0-0.1 0 0-0.2 0-0.4c0-1.7-1.3-3.1-3-3.1-1.7 0-3.1 1.4-3.1 3.1v19c0 2.2 1.8 4 4 4 2.2 0 3.9-1.7 3.9-3.8 1.8-0.4 3.1-1.9 3.1-3.7q0-1-0.5-1.8c1.1-0.8 1.8-2 1.8-3.4z"/>
			<path class="s1" d="m12.7 27.7q-0.5 0.8-0.5 1.8c0 1.8 1.3 3.4 3 3.7 0.1 2.1 1.9 3.8 4 3.8 2.2 0 4-1.7 4-3.9v-9.3-1.1-8.6c0-1.7-1.4-3.1-3.1-3.1-1.7 0-3.1 1.4-3.1 3.1q0 0.1 0.1 0.3-0.1 0-0.2 0c-2.3 0-4.1 1.9-4.1 4.2q0 1 0.5 2c-1.5 0.6-2.5 2.1-2.5 3.7 0 1.4 0.8 2.7 1.9 3.4z"/>
			<path class="s2" d="m30.1 20.6c1.2 0 2.2-1 2.2-2.2 0-1.2-1-2.2-2.2-2.2-1.3 0-2.2 1-2.2 2.2 0 1.2 0.9 2.2 2.2 2.2z"/>
			<path class="s2" d="m30.1 32.6c1.2 0 2.2-1 2.2-2.2 0-1.2-1-2.2-2.2-2.2-1.3 0-2.2 1-2.2 2.2 0 1.2 0.9 2.2 2.2 2.2z"/>
			<path class="s2" d="m32.3 26.6c1.2 0 2.2-1 2.2-2.2 0-1.2-1-2.2-2.2-2.2-1.3 0-2.2 1-2.2 2.2 0 1.2 0.9 2.2 2.2 2.2z"/>
			<path fill-rule="evenodd" class="s2" d="m27.9 18.4h-3.6"/>
			<path fill-rule="evenodd" class="s2" d="m30.1 24.4h-6.3"/>
			<path fill-rule="evenodd" class="s2" d="m27.9 30.4h-3.6"/>
		</g>
	</g>
</svg>