<svg width="48" height="48" viewBox="0 0 48 48" fill="none" xmlns="http://www.w3.org/2000/svg">
    <!-- Rotating quarter circle loader -->
    <g>
        <path d="M24 4 A 20 20 0 0 1 44 24" stroke="#28B4FF" stroke-width="4" fill="none" stroke-linecap="round">
            <animateTransform
                attributeName="transform"
                type="rotate"
                values="0 24 24;360 24 24"
                dur="1s"
                repeatCount="indefinite"/>
        </path>
    </g>

    <!-- Fixed brain icon in center -->
    <g transform="translate(12, 12)">
        <path d="M0.508401 15.7005C0.200901 16.2605 0.032201 16.8805 0.032201 17.5305C0.032201 19.3405 1.32177 20.8705 3.05768 21.1905C3.12712 23.3205 4.86303 25.0305 6.99568 25.0305C9.16804 25.0305 10.9337 23.2505 10.9337 21.0605V11.8105V10.7005V2.05047C10.9337 0.360469 9.5648 -1.01953 7.88844 -1.01953C6.21208 -1.01953 4.84314 0.360469 4.84314 2.05047C4.84314 2.17047 4.84314 2.28047 4.86303 2.40047C4.82334 2.40047 4.78364 2.40047 4.74395 2.40047C2.46249 2.40047 0.607605 4.27047 0.607605 6.57047C0.607605 7.28047 0.786087 7.96047 1.11351 8.57047C-0.344734 9.22047 -1.30694 10.6905 -1.30694 12.3205C-1.30694 13.7405 -0.582826 14.9905 0.508401 15.7305V15.7005Z" fill="#002244"/>
        <path d="M25.0688 12.2888C25.0688 10.6588 24.1165 9.1987 22.6484 8.5487C22.9758 7.9387 23.1543 7.2587 23.1543 6.5487C23.1543 4.2487 21.2994 2.3787 19.0278 2.3787C18.9882 2.3787 18.9485 2.3888 18.9088 2.3888C18.9187 2.2688 18.9286 2.1587 18.9286 2.0387C18.9286 0.348703 17.5598 -1.0313 15.8834 -1.0313C14.207 -1.0313 12.8381 0.348703 12.8381 2.0387V21.0487C12.8381 23.2387 14.6038 25.0187 16.7761 25.0187C18.9485 25.0187 20.6447 23.3187 20.7141 21.1887C22.45 20.8687 23.7396 19.3388 23.7396 17.5288C23.7396 16.8788 23.5709 16.2587 23.2634 15.6987C24.3546 14.9587 25.0688 13.7088 25.0688 12.2888Z" fill="#28B4FF"/>
        <path d="M17.7482 3.66016C16.4389 3.66016 15.3378 4.61016 15.0998 5.86016H12.8381V6.90016H15.0998C15.3378 8.15016 16.4389 9.10016 17.7482 9.10016C19.2361 9.10016 20.4562 7.88016 20.4562 6.38016C20.4562 4.88016 19.2361 3.66016 17.7482 3.66016ZM17.7482 8.06016C16.8357 8.06016 16.0818 7.31016 16.0818 6.38016C16.0818 5.45016 16.8357 4.70016 17.7482 4.70016C18.6608 4.70016 19.4147 5.45016 19.4147 6.38016C19.4147 7.31016 18.6707 8.06016 17.7482 8.06016Z" fill="white"/>
        <path d="M19.9404 9.67969C18.6211 9.67969 17.5201 10.6297 17.282 11.8797H12.8381V12.9197H17.282C17.5201 14.1697 18.6211 15.1197 19.9404 15.1197C21.4283 15.1197 22.6385 13.8997 22.6385 12.3997C22.6385 10.8997 21.4283 9.67969 19.9404 9.67969ZM19.9404 14.0797C19.0179 14.0797 18.264 13.3297 18.264 12.3997C18.264 11.4697 19.0179 10.7197 19.9404 10.7197C20.8629 10.7197 21.6069 11.4697 21.6069 12.3997C21.6069 13.3297 20.853 14.0797 19.9404 14.0797Z" fill="white"/>
        <path d="M17.7482 15.6992C16.4389 15.6992 15.3378 16.6492 15.0998 17.8992H12.8381V18.9392H15.0998C15.3378 20.1892 16.4389 21.1392 17.7482 21.1392C19.2361 21.1392 20.4562 19.9192 20.4562 18.4192C20.4562 16.9192 19.2361 15.6992 17.7482 15.6992ZM17.7482 20.0992C16.8357 20.0992 16.0818 19.3492 16.0818 18.4192C16.0818 17.4892 16.8357 16.7392 17.7482 16.7392C18.6608 16.7392 19.4147 17.4992 19.4147 18.4192C19.4147 19.3392 18.6707 20.0992 17.7482 20.0992Z" fill="white"/>
    </g>
</svg>