<svg width="140" height="138" viewBox="0 0 140 138" fill="none" xmlns="http://www.w3.org/2000/svg">
<g clip-path="url(#clip0_962_15169)">
<path d="M69.3739 138C31.1352 138 0 107.052 0 69C0 30.9482 31.1352 0 69.3739 0C72.2194 0 74.525 2.30554 74.525 5.13034C74.525 7.95515 72.2194 10.2607 69.3739 10.2607C36.8055 10.2607 10.3022 36.6186 10.3022 69C10.3022 101.381 36.8055 127.739 69.3739 127.739C101.942 127.739 128.446 101.381 128.446 69C128.446 66.1752 130.751 63.8697 133.597 63.8697C136.442 63.8697 138.748 66.1752 138.748 69C138.748 107.031 107.613 138 69.3739 138Z" fill="#28B4FF"/>
<path d="M133.644 57.6378C136.676 57.6378 139.148 55.1869 139.148 52.1543C139.148 49.1218 136.676 46.6709 133.644 46.6709C130.611 46.6709 128.14 49.1218 128.14 52.1543C128.14 55.1869 130.611 57.6378 133.644 57.6378Z" fill="#28B4FF"/>
</g>
<path d="M107.878 70.041C107.878 65.3387 105.08 61.0981 100.839 59.2229C101.791 57.492 102.31 55.5015 102.31 53.4533C102.31 46.8183 96.9156 41.4237 90.2805 41.4237C90.1651 41.4237 90.0497 41.4237 89.9343 41.4237C89.9632 41.1063 89.992 40.7602 89.992 40.414C89.992 35.5387 86.011 31.5576 81.1357 31.5576C76.2603 31.5576 72.2793 35.5387 72.2793 40.414V95.2542C72.2793 101.572 77.4143 106.707 83.732 106.707C90.0497 106.707 94.9827 101.774 95.1847 95.6292C100.262 94.7061 103.983 90.2923 103.983 85.0708C103.983 83.1957 103.493 81.4071 102.599 79.7916C105.772 77.6857 107.878 74.0508 107.878 69.9544V70.041Z" fill="#28B4FF"/>
<path d="M36.4101 79.9264C35.5158 81.5419 35.0254 83.3305 35.0254 85.2056C35.0254 90.4271 38.7756 94.8408 43.824 95.764C44.026 101.909 49.0744 106.842 55.2767 106.842C61.5944 106.842 66.7294 101.707 66.7294 95.389V68.7045V65.5023V40.5487C66.7294 35.6734 62.7484 31.6924 57.873 31.6924C52.9977 31.6924 49.0167 35.6734 49.0167 40.5487C49.0167 40.8949 49.0167 41.2122 49.0744 41.5584C48.959 41.5584 48.8436 41.5584 48.7282 41.5584C42.0931 41.5584 36.6985 46.953 36.6985 53.5881C36.6985 55.6363 37.2178 57.598 38.1698 59.3577C33.9291 61.2328 31.1309 65.4735 31.1309 70.1757C31.1309 74.2722 33.2368 77.8782 36.4101 80.0129V79.9264Z" fill="#002244"/>
<path d="M86.577 59.4119C90.0822 59.4119 92.9236 56.5704 92.9236 53.0653C92.9236 49.5602 90.0822 46.7188 86.577 46.7188C83.0719 46.7188 80.2305 49.5602 80.2305 53.0653C80.2305 56.5704 83.0719 59.4119 86.577 59.4119Z" stroke="white" stroke-width="4.5003" stroke-linecap="round" stroke-linejoin="round"/>
<path d="M86.577 94.0916C90.0822 94.0916 92.9236 91.2501 92.9236 87.745C92.9236 84.2399 90.0822 81.3984 86.577 81.3984C83.0719 81.3984 80.2305 84.2399 80.2305 87.745C80.2305 91.2501 83.0719 94.0916 86.577 94.0916Z" stroke="white" stroke-width="4.5003" stroke-linecap="round" stroke-linejoin="round"/>
<path d="M92.7313 76.7742C96.2365 76.7742 99.0779 73.9327 99.0779 70.4276C99.0779 66.9225 96.2365 64.0811 92.7313 64.0811C89.2262 64.0811 86.3848 66.9225 86.3848 70.4276C86.3848 73.9327 89.2262 76.7742 92.7313 76.7742Z" stroke="white" stroke-width="4.5003" stroke-linecap="round" stroke-linejoin="round"/>
<path d="M80.2385 52.2722L72.791 52.3188" stroke="white" stroke-width="3.40092" stroke-linecap="round" stroke-linejoin="round"/>
<path d="M86.4779 68.8986L72.791 69" stroke="white" stroke-width="3.70332" stroke-linecap="round" stroke-linejoin="round"/>
<path d="M80.2385 87.0415L72.791 87.1978" stroke="white" stroke-width="3.40092" stroke-linecap="round" stroke-linejoin="round"/>
<defs>
<clipPath id="clip0_962_15169">
<rect width="139.122" height="138" fill="white"/>
</clipPath>
</defs>
</svg>
