<svg width="48" height="48" viewBox="0 0 59 58" fill="none" xmlns="http://www.w3.org/2000/svg">
<path d="M58.2986 29.7851C58.2986 26.2414 56.1897 23.0456 52.9939 21.6324C53.7113 20.328 54.1026 18.8279 54.1026 17.2843C54.1026 12.284 50.0372 8.21848 45.0368 8.21848C44.9499 8.21848 44.8629 8.21848 44.7759 8.21848C44.7977 7.97934 44.8194 7.71845 44.8194 7.45756C44.8194 3.7834 41.8192 0.783203 38.1451 0.783203C34.4709 0.783203 31.4707 3.7834 31.4707 7.45756V48.7864C31.4707 53.5476 35.3405 57.4174 40.1017 57.4174C44.8629 57.4174 48.5805 53.6998 48.7327 49.069C52.5591 48.3733 55.3636 45.047 55.3636 41.112C55.3636 39.6988 54.994 38.3509 54.3201 37.1335C56.7115 35.5464 58.2986 32.8071 58.2986 29.7199V29.7851Z" fill="#28B4FF"/>
<path d="M4.43946 37.235C3.76551 38.4525 3.39592 39.8004 3.39592 41.2135C3.39592 45.1486 6.22219 48.4749 10.0268 49.1706C10.179 53.8013 13.9836 57.519 18.6578 57.519C23.419 57.519 27.2888 53.6492 27.2888 48.888V28.7779V26.3647V7.55913C27.2888 3.88497 24.2886 0.884766 20.6145 0.884766C16.9403 0.884766 13.9401 3.88497 13.9401 7.55913C13.9401 7.82001 13.9401 8.05916 13.9836 8.32004C13.8966 8.32004 13.8097 8.32004 13.7227 8.32004C8.72236 8.32004 4.65687 12.3855 4.65687 17.3859C4.65687 18.9294 5.0482 20.4078 5.76564 21.734C2.56978 23.1471 0.460938 26.343 0.460938 29.8867C0.460938 32.9739 2.048 35.6914 4.43946 37.3002V37.235Z" fill="#002244"/>
<path d="M42.2458 21.7748C44.8874 21.7748 47.0287 19.6335 47.0287 16.9919C47.0287 14.3504 44.8874 12.209 42.2458 12.209C39.6043 12.209 37.4629 14.3504 37.4629 16.9919C37.4629 19.6335 39.6043 21.7748 42.2458 21.7748Z" stroke="white" stroke-width="4.5003" stroke-linecap="round" stroke-linejoin="round"/>
<path d="M42.2458 47.9096C44.8874 47.9096 47.0287 45.7682 47.0287 43.1267C47.0287 40.4851 44.8874 38.3438 42.2458 38.3438C39.6043 38.3438 37.4629 40.4851 37.4629 43.1267C37.4629 45.7682 39.6043 47.9096 42.2458 47.9096Z" stroke="white" stroke-width="4.5003" stroke-linecap="round" stroke-linejoin="round"/>
<path d="M46.8845 34.8588C49.526 34.8588 51.6674 32.7174 51.6674 30.0759C51.6674 27.4344 49.526 25.293 46.8845 25.293C44.2429 25.293 42.1016 27.4344 42.1016 30.0759C42.1016 32.7174 44.2429 34.8588 46.8845 34.8588Z" stroke="white" stroke-width="4.5003" stroke-linecap="round" stroke-linejoin="round"/>
</svg>
