<svg width="38" height="38" viewBox="0 0 38 38" fill="none" xmlns="http://www.w3.org/2000/svg">
<circle cx="19" cy="19" r="16" fill="white"/>
<circle cx="19" cy="19" r="16" fill="#0A7DA4"/>
<circle cx="19" cy="19" r="17.5" stroke="#0A7DA4" stroke-opacity="0.2" stroke-width="3"/>
<path d="M19 21.5C20.66 21.5 22 20.16 22 18.5V12.5C22 10.84 20.66 9.5 19 9.5C17.34 9.5 16 10.84 16 12.5V18.5C16 20.16 17.34 21.5 19 21.5ZM18 12.5C18 11.95 18.45 11.5 19 11.5C19.55 11.5 20 11.95 20 12.5V18.5C20 19.05 19.55 19.5 19 19.5C18.45 19.5 18 19.05 18 18.5V12.5ZM24 18.5C24 21.26 21.76 23.5 19 23.5C16.24 23.5 14 21.26 14 18.5H12C12 22.03 14.61 24.93 18 25.42V28.5H20V25.42C23.39 24.93 26 22.03 26 18.5H24Z" fill="white"/>
</svg>
