<svg width="21" height="20" viewBox="0 0 21 20" fill="none" xmlns="http://www.w3.org/2000/svg">
<path d="M10.375 20C9.00833 20 7.71667 19.7375 6.5 19.2125C5.28333 18.6875 4.22083 17.9708 3.3125 17.0625C2.40417 16.1542 1.6875 15.0917 1.1625 13.875C0.6375 12.6583 0.375 11.3667 0.375 10C0.375 8.61667 0.6375 7.32083 1.1625 6.1125C1.6875 4.90417 2.40417 3.84583 3.3125 2.9375C4.22083 2.02917 5.28333 1.3125 6.5 0.7875C7.71667 0.2625 9.00833 0 10.375 0C11.7583 0 13.0542 0.2625 14.2625 0.7875C15.4708 1.3125 16.5292 2.02917 17.4375 2.9375C18.3458 3.84583 19.0625 4.90417 19.5875 6.1125C20.1125 7.32083 20.375 8.61667 20.375 10C20.375 11.3667 20.1125 12.6583 19.5875 13.875C19.0625 15.0917 18.3458 16.1542 17.4375 17.0625C16.5292 17.9708 15.4708 18.6875 14.2625 19.2125C13.0542 19.7375 11.7583 20 10.375 20ZM10.375 17.95C10.8083 17.35 11.1833 16.725 11.5 16.075C11.8167 15.425 12.075 14.7333 12.275 14H8.475C8.675 14.7333 8.93333 15.425 9.25 16.075C9.56667 16.725 9.94167 17.35 10.375 17.95ZM7.775 17.55C7.475 17 7.2125 16.4292 6.9875 15.8375C6.7625 15.2458 6.575 14.6333 6.425 14H3.475C3.95833 14.8333 4.5625 15.5583 5.2875 16.175C6.0125 16.7917 6.84167 17.25 7.775 17.55ZM12.975 17.55C13.9083 17.25 14.7375 16.7917 15.4625 16.175C16.1875 15.5583 16.7917 14.8333 17.275 14H14.325C14.175 14.6333 13.9875 15.2458 13.7625 15.8375C13.5375 16.4292 13.275 17 12.975 17.55ZM2.625 12H6.025C5.975 11.6667 5.9375 11.3375 5.9125 11.0125C5.8875 10.6875 5.875 10.35 5.875 10C5.875 9.65 5.8875 9.3125 5.9125 8.9875C5.9375 8.6625 5.975 8.33333 6.025 8H2.625C2.54167 8.33333 2.47917 8.6625 2.4375 8.9875C2.39583 9.3125 2.375 9.65 2.375 10C2.375 10.35 2.39583 10.6875 2.4375 11.0125C2.47917 11.3375 2.54167 11.6667 2.625 12ZM8.025 12H12.725C12.775 11.6667 12.8125 11.3375 12.8375 11.0125C12.8625 10.6875 12.875 10.35 12.875 10C12.875 9.65 12.8625 9.3125 12.8375 8.9875C12.8125 8.6625 12.775 8.33333 12.725 8H8.025C7.975 8.33333 7.9375 8.6625 7.9125 8.9875C7.8875 9.3125 7.875 9.65 7.875 10C7.875 10.35 7.8875 10.6875 7.9125 11.0125C7.9375 11.3375 7.975 11.6667 8.025 12ZM14.725 12H18.125C18.2083 11.6667 18.2708 11.3375 18.3125 11.0125C18.3542 10.6875 18.375 10.35 18.375 10C18.375 9.65 18.3542 9.3125 18.3125 8.9875C18.2708 8.6625 18.2083 8.33333 18.125 8H14.725C14.775 8.33333 14.8125 8.6625 14.8375 8.9875C14.8625 9.3125 14.875 9.65 14.875 10C14.875 10.35 14.8625 10.6875 14.8375 11.0125C14.8125 11.3375 14.775 11.6667 14.725 12ZM14.325 6H17.275C16.7917 5.16667 16.1875 4.44167 15.4625 3.825C14.7375 3.20833 13.9083 2.75 12.975 2.45C13.275 3 13.5375 3.57083 13.7625 4.1625C13.9875 4.75417 14.175 5.36667 14.325 6ZM8.475 6H12.275C12.075 5.26667 11.8167 4.575 11.5 3.925C11.1833 3.275 10.8083 2.65 10.375 2.05C9.94167 2.65 9.56667 3.275 9.25 3.925C8.93333 4.575 8.675 5.26667 8.475 6ZM3.475 6H6.425C6.575 5.36667 6.7625 4.75417 6.9875 4.1625C7.2125 3.57083 7.475 3 7.775 2.45C6.84167 2.75 6.0125 3.20833 5.2875 3.825C4.5625 4.44167 3.95833 5.16667 3.475 6Z" fill="#525A5C"/>
</svg>
