<svg width="24" height="24" viewBox="0 0 24 24" fill="none" xmlns="http://www.w3.org/2000/svg">
<path fill-rule="evenodd" clip-rule="evenodd" d="M2.24959 19.4093V7.87541C2.24959 7.57704 2.36812 7.29089 2.57909 7.07992C2.79007 6.86894 3.07622 6.75041 3.37459 6.75041H10.4996C11.1206 6.75041 11.6246 6.24641 11.6246 5.62541C11.6246 5.00441 11.1206 4.50041 10.4996 4.50041H3.37459C2.47948 4.50041 1.62104 4.85599 0.988104 5.48892C0.355169 6.12186 -0.000408173 6.9803 -0.000408173 7.87541V20.6254C-0.000408173 21.5205 0.355169 22.379 0.988104 23.0119C1.62104 23.6448 2.47948 24.0004 3.37459 24.0004H16.1246C17.0197 24.0004 17.8781 23.6448 18.5111 23.0119C19.144 22.379 19.4996 21.5205 19.4996 20.6254V13.5004C19.4996 12.8794 18.9956 12.3754 18.3746 12.3754C17.7536 12.3754 17.2496 12.8794 17.2496 13.5004V14.1593L13.1703 10.0797C12.9592 9.8688 12.673 9.75037 12.3746 9.75037C12.0762 9.75037 11.79 9.8688 11.5788 10.0797L2.24959 19.4093ZM17.2496 17.3415V20.6254C17.2496 20.9238 17.1311 21.2099 16.9201 21.4209C16.7091 21.6319 16.423 21.7504 16.1246 21.7504H3.37459C3.28684 21.7504 3.20134 21.7403 3.11959 21.7215L12.3746 12.4665L17.2496 17.3415ZM6.18709 12.3754C6.73401 12.3751 7.25844 12.1577 7.64517 11.771C8.0319 11.3843 8.24929 10.8598 8.24959 10.3129C8.24959 9.17479 7.32559 8.25041 6.18709 8.25041C5.04896 8.25041 4.12459 9.17479 4.12459 10.3129C4.12459 11.451 5.04934 12.3754 6.18709 12.3754ZM17.3193 0.735035L16.2836 3.53441L13.4842 4.57016C13.2685 4.64986 13.0825 4.79373 12.951 4.9824C12.8196 5.17107 12.7492 5.39548 12.7492 5.62541C12.7492 5.85534 12.8196 6.07975 12.951 6.26842C13.0825 6.45709 13.2685 6.60096 13.4842 6.68066L16.2836 7.71641L17.3193 10.5158C17.399 10.7315 17.5429 10.9175 17.7316 11.049C17.9203 11.1804 18.1447 11.2508 18.3746 11.2508C18.6045 11.2508 18.8289 11.1804 19.0176 11.049C19.2063 10.9175 19.3501 10.7315 19.4298 10.5158L20.4656 7.71641L23.265 6.68066C23.4806 6.60096 23.6667 6.45709 23.7981 6.26842C23.9295 6.07975 24 5.85534 24 5.62541C24 5.39548 23.9295 5.17107 23.7981 4.9824C23.6667 4.79373 23.4806 4.64986 23.265 4.57016L20.4656 3.53441L19.4298 0.735035C19.3501 0.519362 19.2063 0.333289 19.0176 0.201871C18.8289 0.0704524 18.6045 0 18.3746 0C18.1447 0 17.9203 0.0704524 17.7316 0.201871C17.5429 0.333289 17.399 0.519362 17.3193 0.735035ZM18.3746 4.36691L18.5351 4.80041C18.5914 4.95255 18.6799 5.09072 18.7946 5.20542C18.9093 5.32012 19.0474 5.40865 19.1996 5.46491L19.6331 5.62541L19.1996 5.78591C19.0474 5.84218 18.9093 5.9307 18.7946 6.0454C18.6799 6.1601 18.5914 6.29827 18.5351 6.45041L18.3746 6.88391L18.2141 6.45041C18.1578 6.29827 18.0693 6.1601 17.9546 6.0454C17.8399 5.9307 17.7017 5.84218 17.5496 5.78591L17.1161 5.62541L17.5496 5.46491C17.7017 5.40865 17.8399 5.32012 17.9546 5.20542C18.0693 5.09072 18.1578 4.95255 18.2141 4.80041L18.3746 4.36691ZM14.2496 3.00041C15.0772 3.00041 15.7496 2.32804 15.7496 1.50041C15.7496 1.20374 15.6616 0.913729 15.4968 0.667055C15.332 0.420381 15.0977 0.228122 14.8236 0.114591C14.5495 0.00105958 14.2479 -0.0286454 13.957 0.0292324C13.666 0.0871103 13.3987 0.229971 13.1889 0.43975C12.9792 0.649529 12.8363 0.916803 12.7784 1.20777C12.7205 1.49875 12.7502 1.80035 12.8638 2.07444C12.9773 2.34852 13.1696 2.58279 13.4162 2.74761C13.6629 2.91244 13.9529 3.00041 14.2496 3.00041Z" fill="#525A5C"/>
</svg>
