<svg width="20" height="21" viewBox="0 0 20 21" fill="none" xmlns="http://www.w3.org/2000/svg">
<path fill-rule="evenodd" clip-rule="evenodd" d="M8.94769 0.792202C9.0095 1.057 8.96362 1.33551 8.82014 1.5665C8.67667 1.79749 8.44733 1.96205 8.18256 2.024C6.66006 2.38151 5.27708 3.18075 4.20718 4.32143C4.02085 4.51973 3.76337 4.63589 3.4914 4.64435C3.21942 4.65282 2.95522 4.55289 2.75692 4.36656C2.55862 4.18023 2.44246 3.92275 2.434 3.65078C2.42554 3.3788 2.52546 3.1146 2.71179 2.9163C4.05852 1.48148 5.79901 0.476362 7.71487 0.0270734C7.84606 -0.00368189 7.98202 -0.00828517 8.11499 0.0135266C8.24796 0.0353383 8.37533 0.0831375 8.48982 0.154193C8.60431 0.225248 8.70367 0.318167 8.78224 0.427639C8.8608 0.537112 8.91702 0.660992 8.94769 0.792202ZM11.0523 0.792202C11.083 0.660992 11.1392 0.537112 11.2178 0.427639C11.2963 0.318167 11.3957 0.225248 11.5102 0.154193C11.6247 0.0831375 11.752 0.0353383 11.885 0.0135266C12.018 -0.00828517 12.1539 -0.00368189 12.2851 0.0270734C14.2011 0.476647 15.9416 1.48213 17.2882 2.91733C17.3805 3.01552 17.4525 3.13092 17.5001 3.25694C17.5478 3.38296 17.5702 3.51713 17.566 3.6518C17.5618 3.78647 17.5311 3.919 17.4757 4.04181C17.4203 4.16463 17.3413 4.27532 17.2431 4.36759C17.1449 4.45985 17.0295 4.53187 16.9035 4.57953C16.7774 4.6272 16.6433 4.64957 16.5086 4.64538C16.3739 4.64119 16.2414 4.61051 16.1186 4.55511C15.9958 4.4997 15.8851 4.42065 15.7928 4.32246C14.7229 3.18178 13.3399 2.38253 11.8174 2.02502C11.6862 1.99435 11.5623 1.93813 11.4529 1.85957C11.3434 1.781 11.2505 1.68164 11.1794 1.56715C11.1084 1.45266 11.0606 1.32529 11.0388 1.19232C11.0169 1.05935 11.0216 0.923391 11.0523 0.792202ZM1.70256 6.18912C1.83162 6.22787 1.95178 6.29167 2.05617 6.37688C2.16056 6.46209 2.24714 6.56703 2.31096 6.68571C2.37477 6.80439 2.41458 6.93448 2.4281 7.06855C2.44162 7.20262 2.42858 7.33804 2.38974 7.46707C2.16578 8.21235 2.05176 8.98631 2.05128 9.76451C2.05128 10.5584 2.16718 11.3337 2.38462 12.0722C2.46132 12.3333 2.43115 12.6143 2.30074 12.8531C2.17034 13.092 1.95037 13.2693 1.68923 13.346C1.42809 13.4228 1.14718 13.3926 0.908289 13.2622C0.669396 13.1318 0.492093 12.9118 0.415385 12.6507C0.140176 11.7133 0.000301663 10.7414 0 9.76451C0 8.76143 0.147692 7.79118 0.42359 6.87528C0.462445 6.74631 0.526323 6.62626 0.611575 6.52198C0.696827 6.4177 0.801784 6.33124 0.920453 6.26752C1.03912 6.20381 1.16918 6.16409 1.3032 6.15064C1.43722 6.13719 1.57257 6.15026 1.70154 6.18912M18.2985 6.18912C18.4275 6.15028 18.5629 6.13725 18.697 6.15077C18.8311 6.16429 18.9611 6.20409 19.0798 6.26791C19.1985 6.33173 19.3034 6.4183 19.3887 6.5227C19.4739 6.62709 19.5377 6.74725 19.5764 6.8763C19.8523 7.79118 20 8.76143 20 9.76451C19.9993 10.7411 19.859 11.7127 19.5836 12.6496C19.5069 12.9106 19.3296 13.1305 19.0908 13.2608C18.852 13.3911 18.5713 13.4212 18.3103 13.3445C18.0493 13.2678 17.8294 13.0906 17.6991 12.8518C17.5688 12.613 17.5387 12.3322 17.6154 12.0712C17.8357 11.3221 17.9479 10.5453 17.9487 9.76451C17.9489 8.98641 17.8356 8.21245 17.6123 7.46707C17.5734 7.33811 17.5604 7.20275 17.5738 7.06873C17.5873 6.93471 17.627 6.80466 17.6907 6.68599C17.7544 6.56732 17.8409 6.46236 17.9452 6.37711C18.0494 6.29186 18.1695 6.22798 18.2985 6.18912ZM17.2913 15.1819C17.3922 15.2712 17.4745 15.3795 17.5336 15.5006C17.5926 15.6217 17.6272 15.7533 17.6354 15.8878C17.6436 16.0223 17.6252 16.157 17.5813 16.2844C17.5374 16.4118 17.4688 16.5293 17.3795 16.6301C16.0533 18.1296 14.2964 19.2466 12.2974 19.7409C12.1655 19.7768 12.0278 19.7859 11.8924 19.7678C11.7569 19.7497 11.6264 19.7046 11.5086 19.6354C11.3908 19.5661 11.288 19.474 11.2062 19.3644C11.1245 19.2549 11.0655 19.1301 11.0327 18.9974C10.9999 18.8647 10.9939 18.7268 11.0152 18.5918C11.0364 18.4568 11.0844 18.3274 11.1564 18.2112C11.2283 18.095 11.3228 17.9944 11.4342 17.9152C11.5456 17.836 11.6717 17.7799 11.8051 17.7501C13.3744 17.3614 14.7744 16.4784 15.8441 15.2701C16.0244 15.0666 16.2781 14.943 16.5494 14.9265C16.8208 14.91 17.0876 15.0018 17.2913 15.1819ZM4.02256 15.1737C4.13554 15.2472 4.23293 15.3422 4.30918 15.4533C4.38542 15.5644 4.43903 15.6894 4.46694 15.8212C4.49485 15.953 4.49651 16.0891 4.47182 16.2215C4.44714 16.354 4.39659 16.4803 4.32308 16.5932L3.42872 17.9696H7.94872C8.22073 17.9696 8.48161 18.0777 8.67395 18.27C8.8663 18.4624 8.97436 18.7233 8.97436 18.9953C8.97436 19.2673 8.8663 19.5282 8.67395 19.7205C8.48161 19.9129 8.22073 20.0209 7.94872 20.0209H1.53846C1.35387 20.0208 1.17272 19.9709 1.01412 19.8765C0.855524 19.782 0.725355 19.6465 0.637346 19.4843C0.549337 19.322 0.506749 19.139 0.514076 18.9546C0.521403 18.7701 0.578372 18.5911 0.678974 18.4363L2.60308 15.4753C2.67644 15.3622 2.77136 15.2647 2.88242 15.1884C2.99348 15.112 3.1185 15.0583 3.25033 15.0303C3.38216 15.0023 3.51821 15.0006 3.65072 15.0252C3.78322 15.0498 3.90958 15.1003 4.02256 15.1737Z" fill="#525A5C"/>
</svg>
