<svg width="15" height="26" viewBox="0 0 15 26" fill="none" xmlns="http://www.w3.org/2000/svg">
<path d="M12.2273 6.45455V19C12.2273 21.4109 10.1118 23.3636 7.5 23.3636C4.88818 23.3636 2.77273 21.4109 2.77273 19V5.36364C2.77273 3.85818 4.09636 2.63636 5.72727 2.63636C7.35818 2.63636 8.68182 3.85818 8.68182 5.36364V16.8182C8.68182 17.4182 8.15 17.9091 7.5 17.9091C6.85 17.9091 6.31818 17.4182 6.31818 16.8182V6.45455H4.54545V16.8182C4.54545 18.3236 5.86909 19.5455 7.5 19.5455C9.13091 19.5455 10.4545 18.3236 10.4545 16.8182V5.36364C10.4545 2.95273 8.33909 1 5.72727 1C3.11545 1 1 2.95273 1 5.36364V19C1 22.3164 3.90727 25 7.5 25C11.0927 25 14 22.3164 14 19V6.45455H12.2273Z" fill="#525A5C" stroke="#525A5C" stroke-width="0.4"/>
</svg>
