<svg width="21" height="20" viewBox="0 0 21 20" fill="none" xmlns="http://www.w3.org/2000/svg">
<path d="M7.43786 17.3864C5.8531 16.6591 4.56548 15.5606 3.575 14.0909C2.58452 12.6212 2.08929 10.9621 2.08929 9.11364C2.08929 8.7197 2.10833 8.33333 2.14643 7.95455C2.18452 7.57576 2.24929 7.20455 2.34071 6.84091L1.28929 7.45455L0.375 5.88636L4.74071 3.38636L7.255 7.70455L5.655 8.61364L4.42071 6.47727C4.2531 6.88636 4.12738 7.31061 4.04357 7.75C3.95976 8.18939 3.91786 8.64394 3.91786 9.11364C3.91786 10.5833 4.32167 11.9205 5.12929 13.125C5.9369 14.3295 7.01119 15.2197 8.35214 15.7955L7.43786 17.3864ZM14.4321 6.36364V4.54545H16.9236C16.2226 3.68182 15.3769 3.01136 14.3864 2.53409C13.396 2.05682 12.3445 1.81818 11.2321 1.81818C10.394 1.81818 9.60167 1.94697 8.855 2.20455C8.10833 2.46212 7.42262 2.82576 6.79786 3.29545L5.88357 1.70455C6.64548 1.17424 7.47595 0.757576 8.375 0.454545C9.27405 0.151515 10.2264 0 11.2321 0C12.436 0 13.5864 0.223485 14.6836 0.670455C15.7807 1.11742 16.7636 1.76515 17.6321 2.61364V1.36364H19.4607V6.36364H14.4321ZM13.8379 20L9.47214 17.5L11.9864 13.1818L13.5636 14.0909L12.2607 16.3182C14.0588 16.0606 15.556 15.25 16.7521 13.8864C17.9483 12.5227 18.5464 10.9242 18.5464 9.09091C18.5464 8.92424 18.5426 8.76894 18.535 8.625C18.5274 8.48106 18.5083 8.33333 18.4779 8.18182H20.3293C20.3445 8.33333 20.356 8.48106 20.3636 8.625C20.3712 8.76894 20.375 8.92424 20.375 9.09091C20.375 11.1364 19.7617 12.9659 18.535 14.5795C17.3083 16.1932 15.7121 17.2803 13.7464 17.8409L14.7521 18.4318L13.8379 20Z" fill="#525A5C"/>
<path d="M11.6914 6.90527C11.8295 7.31952 12.0622 7.6962 12.3711 8.00488C12.6799 8.31349 13.0565 8.54572 13.4707 8.68359L14.4189 8.99902L13.4697 9.31543C13.0555 9.45355 12.6788 9.68627 12.3701 9.99512C12.0615 10.3039 11.8293 10.6805 11.6914 11.0947L11.375 12.043L11.0596 11.0938C10.9215 10.6797 10.6885 10.3038 10.3799 9.99512C10.0712 9.68647 9.69535 9.45345 9.28125 9.31543L8.33105 8.99902L9.28125 8.68359C9.69515 8.54562 10.0713 8.31333 10.3799 8.00488C10.65 7.73478 10.8617 7.41231 11.0029 7.05859L11.0596 6.90527L11.375 5.95508L11.6914 6.90527Z" stroke="#525A5C"/>
</svg>
